<svg width="112" height="112" viewBox="0 0 112 112" fill="none" xmlns="http://www.w3.org/2000/svg">
<path d="M37.333 88.6667H13.9997C12.762 88.6667 11.575 88.175 10.6998 87.2999C9.82467 86.4247 9.33301 85.2377 9.33301 84V28C9.33301 26.7624 9.82467 25.5754 10.6998 24.7002C11.575 23.825 12.762 23.3334 13.9997 23.3334H44.9163L39.4703 32.6667H18.6663V79.3334H37.333V88.6667ZM57.7497 88.6667L63.1957 79.3334H83.9997V32.6667H65.333V23.3334H88.6663C89.904 23.3334 91.091 23.825 91.9662 24.7002C92.8413 25.5754 93.333 26.7624 93.333 28V84C93.333 85.2377 92.8413 86.4247 91.9662 87.2999C91.091 88.175 89.904 88.6667 88.6663 88.6667H57.7497ZM97.9997 42H107.333V70H97.9997V42ZM55.9997 51.3334H69.9997L46.6663 88.6667V60.6667H32.6663L55.9997 23.3334V51.3334Z" fill="black"/>
</svg>
