<svg width="156" height="156" viewBox="0 0 156 156" fill="none" xmlns="http://www.w3.org/2000/svg">
<path d="M93.486 70.2084C97.7714 70.2084 101.326 73.7146 101.326 78C101.326 82.2854 97.9175 85.7917 93.5834 85.7917H62.4167C58.1313 85.7917 54.625 82.2854 54.625 78C54.625 73.7146 58.1313 70.2084 62.4167 70.2084H93.0964M93.5834 62.4167H62.4167C53.8459 62.4167 46.8334 69.4292 46.8334 78C46.8334 86.5709 53.8459 93.5834 62.4167 93.5834H93.5834C102.154 93.5834 109.167 86.5709 109.167 78C109.167 69.4292 102.154 62.4167 93.5834 62.4167Z" fill="black"/>
<path d="M155.917 7.875H0.083374V46.8333H7.87504V148.125H148.125V46.8333H155.917V7.875ZM140.333 140.333H15.6667V46.8333H140.333V140.333ZM148.125 39.0417H7.87504V15.6667H148.125V39.0417Z" fill="black"/>
</svg>
