<svg width="156" height="156" viewBox="0 0 156 156" fill="none" xmlns="http://www.w3.org/2000/svg">
<path d="M3.12 122.045H93.6V152.515L112.32 141.283L131.04 152.515V122.045H152.88V3.48505H3.12V122.045ZM125.627 100.873C125.346 101.157 125.046 101.419 124.75 101.684C124.582 101.834 124.426 101.993 124.251 102.136C124.057 102.299 123.852 102.436 123.652 102.589C121.022 104.601 117.852 105.94 114.392 106.323C114.336 106.33 114.279 106.342 114.22 106.348C113.593 106.411 112.956 106.445 112.314 106.445C111.671 106.445 111.035 106.411 110.407 106.348C110.351 106.342 110.295 106.33 110.236 106.323C106.776 105.94 103.609 104.601 100.976 102.589C100.776 102.436 100.57 102.295 100.377 102.136C100.205 101.993 100.046 101.834 99.8774 101.684C99.581 101.419 99.2846 101.157 99.0007 100.873C95.6592 97.4907 93.5875 92.8481 93.5875 87.7251C93.5875 77.401 101.983 69.0051 112.308 69.0051C122.632 69.0051 131.028 77.401 131.028 87.7251C131.04 92.845 128.971 97.4875 125.627 100.873ZM124.8 141.495L112.32 134.007L99.84 141.495V122.045V109.347C99.9461 109.409 100.065 109.45 100.174 109.509C101.001 109.971 101.852 110.395 102.732 110.763C102.77 110.779 102.81 110.791 102.851 110.807C105.774 112.011 108.969 112.685 112.323 112.685C115.677 112.685 118.872 112.011 121.795 110.807C121.833 110.791 121.873 110.779 121.914 110.763C122.794 110.395 123.646 109.974 124.472 109.509C124.582 109.45 124.7 109.409 124.806 109.347V122.045V141.495H124.8ZM9.35999 9.72505H146.64V115.805H131.04V104.18C134.912 99.7807 137.28 94.0306 137.28 87.7251C137.28 73.9627 126.082 62.765 112.32 62.765C98.5577 62.765 87.36 73.9627 87.36 87.7251C87.36 94.0306 89.7281 99.7807 93.6 104.18V115.805H9.35999V9.72505Z" fill="black"/>
<path d="M118.56 22.205H37.4399V28.445H118.56V22.205Z" fill="black"/>
<path d="M102.96 40.925H53.04V47.165H102.96V40.925Z" fill="black"/>
<path d="M56.16 97.085H21.84V103.325H56.16V97.085Z" fill="black"/>
</svg>
