<svg width="156" height="156" viewBox="0 0 156 156" fill="none" xmlns="http://www.w3.org/2000/svg">
<g clip-path="url(#clip0_91_29)">
<path d="M133.575 78C133.575 77.325 133.575 76.65 133.575 75.975L156.3 68.55L146.85 39.75L124.125 47.175C123.45 46.05 122.55 44.925 121.65 43.8L135.825 24.45L111.3 6.44998L97.1251 25.8C95.7751 25.35 94.4251 24.9 93.0751 24.45V0.599976H62.9251V24.45C61.5751 24.9 60.2251 25.35 58.8751 25.8L44.7001 6.44998L20.1751 24.225L34.3501 43.575C33.4501 44.7 32.7751 45.825 31.8751 46.95L9.15007 39.525L-0.299927 68.55L22.4251 75.975C22.4251 76.65 22.4251 77.325 22.4251 78C22.4251 78.675 22.4251 79.35 22.4251 80.025L-0.299927 87.45L9.15007 116.25L31.8751 108.825C32.5501 109.95 33.4501 111.075 34.3501 112.2L20.1751 131.55L44.7001 149.325L58.8751 129.975C60.2251 130.425 61.5751 130.875 62.9251 131.325V155.175H93.3001V131.55C94.6501 131.1 96.0001 130.65 97.3501 130.2L111.3 149.55L135.825 131.775L121.65 112.425C122.55 111.3 123.225 110.175 124.125 109.05L146.85 116.25L156.3 87.45L133.575 80.025C133.575 79.35 133.575 78.675 133.575 78ZM147.75 91.725L142.575 107.7L121.2 100.725L119.85 102.975C118.5 105.45 116.7 107.7 114.9 109.725L113.1 111.75L126.375 129.975L112.65 139.875L99.3751 121.65L97.1251 123C94.6501 124.125 91.9501 125.025 89.2501 125.475L86.5501 126.15V148.65H69.6751V126.15L66.9751 125.475C64.2751 124.8 61.5751 123.9 59.1001 123L56.6251 121.875L43.3501 140.1L29.6251 130.2L42.9001 111.975L41.1001 109.95C39.3001 107.925 37.7251 105.675 36.1501 103.2L34.8001 100.95L13.4251 107.925L8.25007 91.725L29.6251 84.75L29.4001 82.05C29.4001 80.7 29.1751 79.35 29.1751 77.775C29.1751 76.2 29.1751 74.85 29.4001 73.5L29.6251 70.8L8.25007 64.275L13.4251 48.3L34.8001 55.275L36.1501 53.025C37.5001 50.55 39.3001 48.3 41.1001 46.275L42.9001 44.25L29.6251 26.025L43.3501 16.125L56.6251 34.35L59.1001 33.225C61.5751 32.1 64.2751 31.2 67.2001 30.75L69.9001 30.075V7.57498H86.7751V30.075L89.4751 30.75C92.1751 31.425 94.8751 32.325 97.3501 33.225L99.8251 34.35L113.1 16.125L126.825 26.025L113.55 44.25L115.35 46.275C117.15 48.3 118.725 50.55 120.3 53.025L121.65 55.275L143.025 48.3L148.2 64.275L126.825 71.25L127.05 73.95C127.05 75.3 127.275 76.65 127.275 78.225C127.275 79.8 127.275 81.15 127.05 82.5L126.375 84.75L147.75 91.725Z" fill="black"/>
<path d="M78 48.3C61.5751 48.3 48.3 61.575 48.3 78C48.3 94.425 61.5751 107.7 78 107.7C94.4251 107.7 107.7 94.425 107.7 78C107.7 61.575 94.4251 48.3 78 48.3ZM78 100.95C65.4001 100.95 55.05 90.6 55.05 78C55.05 65.4 65.4001 55.05 78 55.05C90.6001 55.05 100.95 65.4 100.95 78C100.95 90.6 90.6001 100.95 78 100.95Z" fill="black"/>
</g>
<defs>
<clipPath id="clip0_91_29">
<rect width="156" height="156" fill="white"/>
</clipPath>
</defs>
</svg>
