<svg width="100" height="100" viewBox="0 0 100 100" fill="none" xmlns="http://www.w3.org/2000/svg">
<g clip-path="url(#clip0_184_11)">
<path d="M95.8333 70.8333H4.16667C1.66667 70.8333 0 72.4999 0 74.9999V95.8333C0 98.3333 1.66667 99.9999 4.16667 99.9999H95.8333C98.3333 99.9999 100 98.3333 100 95.8333V74.9999C100 72.4999 98.3333 70.8333 95.8333 70.8333ZM91.6667 91.6666H8.33333V79.1666H91.6667V91.6666Z" fill="black"/>
<path d="M33.3333 83.3333H12.5V87.4999H33.3333V83.3333Z" fill="black"/>
<path d="M95.8333 37.5H4.16667C1.66667 37.5 0 39.1667 0 41.6667V62.5C0 65 1.66667 66.6667 4.16667 66.6667H95.8333C98.3333 66.6667 100 65 100 62.5V41.6667C100 39.1667 98.3333 37.5 95.8333 37.5ZM91.6667 58.3333H8.33333V45.8333H91.6667V58.3333Z" fill="black"/>
<path d="M33.3333 50H12.5V54.1667H33.3333V50Z" fill="black"/>
<path d="M95.8333 4.16663H4.16667C1.66667 4.16663 0 5.83329 0 8.33329V29.1666C0 31.6666 1.66667 33.3333 4.16667 33.3333H95.8333C98.3333 33.3333 100 31.6666 100 29.1666V8.33329C100 5.83329 98.3333 4.16663 95.8333 4.16663ZM91.6667 25H8.33333V12.5H91.6667V25Z" fill="black"/>
<path d="M33.3333 16.6666H12.5V20.8333H33.3333V16.6666Z" fill="black"/>
</g>
<defs>
<clipPath id="clip0_184_11">
<rect width="100" height="100" fill="white"/>
</clipPath>
</defs>
</svg>
