<svg width="120" height="79" viewBox="0 0 120 79" fill="none" xmlns="http://www.w3.org/2000/svg">
<path d="M60 0C55.1514 0 51.0205 3.16406 49.4531 7.5H22.5V15H27.7734L26.7188 16.875L11.7188 43.125L11.25 44.0625V45C11.25 55.3125 19.6875 63.75 30 63.75C40.3125 63.75 48.75 55.3125 48.75 45V44.0625L48.2812 43.125L33.2812 16.875L32.2266 15H49.4531C50.5957 18.1641 53.0859 20.6543 56.25 21.7969V71.25H41.25V78.75H78.75V71.25H63.75V21.7969C66.8994 20.6543 69.4043 18.1494 70.5469 15H87.7734L86.7188 16.875L71.7188 43.125L71.25 44.0625V45C71.25 55.3125 79.6875 63.75 90 63.75C100.312 63.75 108.75 55.3125 108.75 45V44.0625L108.281 43.125L93.2812 16.875L92.2266 15H97.5V7.5H70.5469C68.9795 3.16406 64.8486 0 60 0ZM60 7.5C62.1094 7.5 63.75 9.14062 63.75 11.25C63.75 13.3594 62.1094 15 60 15C57.8906 15 56.25 13.3594 56.25 11.25C56.25 9.14062 57.8906 7.5 60 7.5ZM30 26.3672L38.5547 41.25H21.4453L30 26.3672ZM90 26.3672L98.5547 41.25H81.4453L90 26.3672ZM19.6875 48.75H40.3125C38.8037 53.1006 34.8926 56.25 30 56.25C25.1074 56.25 21.1963 53.1006 19.6875 48.75ZM79.6875 48.75H100.312C98.8037 53.1006 94.8926 56.25 90 56.25C85.1074 56.25 81.1963 53.1006 79.6875 48.75Z" fill="black"/>
</svg>
