<svg width="100" height="100" viewBox="0 0 100 100" fill="none" xmlns="http://www.w3.org/2000/svg">
<path d="M74.9997 41.6666C75.0126 34.1327 72.473 26.8167 67.7949 20.9112C63.1168 15.0057 56.5761 10.8591 49.2392 9.14752C41.9023 7.43593 34.202 8.26028 27.3936 11.4862C20.5853 14.712 15.0706 20.1492 11.7486 26.9111C8.42653 33.673 7.49316 41.3609 9.10061 48.7213C10.7081 56.0818 14.7615 62.6805 20.6001 67.4419C26.4388 72.2032 33.7181 74.8462 41.2514 74.94C48.7848 75.0338 56.1277 72.5728 62.083 67.9583L88.7497 94.625L94.6247 88.75L67.958 62.0833C72.5059 56.2478 74.9833 49.0651 74.9997 41.6666ZM41.6663 66.6666C36.7218 66.6666 31.8883 65.2004 27.7771 62.4534C23.6658 59.7063 20.4615 55.8019 18.5693 51.2337C16.6771 46.6656 16.1821 41.6389 17.1467 36.7894C18.1113 31.9399 20.4923 27.4853 23.9887 23.989C27.485 20.4927 31.9395 18.1116 36.7891 17.147C41.6386 16.1824 46.6653 16.6775 51.2334 18.5696C55.8016 20.4618 59.706 23.6662 62.4531 27.7774C65.2001 31.8886 66.6663 36.7221 66.6663 41.6666C66.6663 48.297 64.0324 54.6559 59.344 59.3443C54.6556 64.0327 48.2967 66.6666 41.6663 66.6666Z" fill="black"/>
</svg>
