<svg width="106" height="106" viewBox="0 0 106 106" fill="none" xmlns="http://www.w3.org/2000/svg">
<g clip-path="url(#clip0_184_23)">
<path d="M53 0.5C33.7812 9.18594 21.4484 13.2641 0.5 15.5C0.5 33.6852 1.73516 46.7563 6.42734 58.7445C10.2641 68.5202 15.9481 77.4652 23.1688 85.0906C34.7937 97.4328 47.5836 103.934 53 105.5C58.4164 103.934 71.2063 97.4328 82.8312 85.0906C90.0519 77.4652 95.7359 68.5202 99.5727 58.7445C104.265 46.7563 105.5 33.6852 105.5 15.5C84.5516 13.2641 72.2188 9.18594 53 0.5ZM90.8445 55.3273C87.4421 63.9858 82.4043 71.9082 76.0063 78.6617C67.0625 88.1562 57.8398 93.3852 53 95.5062V10.7656C62.082 14.75 69.1086 17.3984 75.9523 19.4117C82.5278 21.335 89.2324 22.7856 96.0148 23.7523C95.6117 37.8664 94.0555 47.1172 90.8445 55.3273Z" fill="black"/>
</g>
<defs>
<clipPath id="clip0_184_23">
<rect width="106" height="106" fill="white"/>
</clipPath>
</defs>
</svg>
