<svg width="323" height="34" viewBox="0 0 323 34" fill="none" xmlns="http://www.w3.org/2000/svg">
<g clip-path="url(#clip0_78_268)">
<path d="M27.2095 24.0359C27.2515 23.5621 27.3161 23.0229 27.4065 22.4412C27.6682 20.8921 28.1074 19.4248 28.7211 18.0523C29.3348 16.6765 30.1165 15.451 31.079 14.3856C32.0351 13.317 33.1559 12.4804 34.4253 11.8758C35.6979 11.2778 37.1062 10.9771 38.6405 10.9771C40.0584 10.9771 41.3052 11.2778 42.3873 11.8758C43.4693 12.4804 44.2865 13.268 44.855 14.2418C45.417 15.2157 45.698 16.2385 45.698 17.3039C45.698 17.5131 45.6722 17.8072 45.6205 18.183C45.6108 18.2516 45.5107 18.7745 45.459 19.0425H40.1844C40.178 18.8856 40.2296 18.4412 40.2296 18.2091C40.2296 16.232 39.4609 15.2484 37.9266 15.2484C36.7509 15.2484 35.7884 15.8268 35.0358 16.9869C34.2897 18.1438 33.705 19.9542 33.2948 22.4085C33.2012 23.0098 33.1366 23.5523 33.0946 24.0359M33.0623 24.9608C33.0623 26.2157 33.2851 27.2418 33.747 27.8333C34.2089 28.415 34.9195 28.7091 35.882 28.7091C36.7251 28.7091 37.4551 28.5 38.0558 28.0784C38.6599 27.6568 39.1056 27.2255 39.3931 26.7843C39.7677 26.1993 40.1037 25.5882 40.3911 24.9542H44.7032C44.2413 26.1765 43.8149 27.2908 43.0914 28.3889C42.7329 28.9314 42.3421 29.4346 41.9189 29.8954C40.9499 30.9477 39.8517 31.7516 38.6179 32.3104C37.3775 32.8627 36.0726 33.1405 34.687 33.1405C33.5823 33.1405 32.4518 32.8921 31.2987 32.4019C30.152 31.9052 29.1733 31.0588 28.3723 29.8497C27.568 28.647 27.1481 26.9412 27.1481 24.9673" fill="#FEFEFE"/>
<path d="M94.3192 24.9444L93.0725 32.7483H90.5692L91.816 24.9444M91.9646 24.0229L93.9898 11.3431H99.6132C101.27 11.3431 102.565 11.4967 103.502 11.8039C104.436 12.1144 105.23 12.7876 105.892 13.8366C106.551 14.8823 106.877 16.0196 106.877 17.2516C106.877 18.8954 106.312 20.4477 105.162 21.9052C104.016 23.366 101.823 24.0948 98.5732 24.0948H94.4517M94.8005 21.9575H97.6042C99.3451 21.9575 100.605 21.866 101.38 21.6797C102.162 21.4902 102.837 20.9967 103.412 20.1961C103.99 19.3954 104.274 18.4379 104.274 17.317C104.274 16.451 104.1 15.7059 103.748 15.085C103.399 14.4575 102.95 14.0294 102.397 13.7941C101.848 13.5653 100.902 13.4477 99.5518 13.4477L96.1474 13.4738L94.7973 21.9575H94.8005ZM121.716 23.9673C122.078 22.2778 122.256 20.8431 122.256 19.6405C122.256 17.5817 121.768 15.9706 120.786 14.8072C119.807 13.6503 118.56 13.0686 117.039 13.0686C114.859 13.0686 113.176 14.2157 111.994 16.4934C110.812 18.7778 110.221 21.1634 110.221 23.9673H107.598C107.598 23.8268 107.595 23.7222 107.595 23.5751C107.595 20.3366 108.463 17.4117 110.204 14.8072C111.945 12.2059 114.252 10.9052 117.126 10.9052C119.41 10.9052 121.267 11.732 122.704 13.3823C124.148 15.0327 124.865 17.3006 124.865 20.1863C124.865 21.5065 124.739 22.768 124.484 23.9673M124.232 24.9967C123.803 26.5131 123.16 27.9281 122.304 29.2451C120.595 31.8595 118.276 33.1732 115.347 33.1732C112.998 33.1732 111.122 32.2941 109.707 30.5294C108.538 29.0653 107.853 27.2287 107.653 24.9967H110.237C110.34 26.8235 110.818 28.1928 111.655 29.2385C112.617 30.4281 113.845 31.0261 115.343 31.0261C116.842 31.0261 118.231 30.4052 119.326 29.1699C120.308 28.0523 121.022 26.6405 121.471 24.9967H124.232ZM177.175 24.0033H177.191L171.313 23.9346M180.063 24.9477L182.637 32.7483H179.979L177.476 24.9477M168.68 24.0033L170.702 11.3431H177.107C179.036 11.3431 180.473 11.5588 181.416 11.9804C182.363 12.4019 183.115 13.0621 183.674 13.9608C185.793 17.3758 183.684 23.3399 179.772 24.0033M171.016 24.9477L169.785 32.7483H167.282L168.529 24.9477M171.497 21.9117H176.19C183.034 21.9117 183.813 13.4314 177.556 13.4314H172.879L171.497 21.9117Z" fill="#FEFEFE"/>
<path fill-rule="evenodd" clip-rule="evenodd" d="M27.9137 2.13399H6.01428L6.55046 0H28.4531L27.9137 2.13399Z" fill="#FEFEFE"/>
<path fill-rule="evenodd" clip-rule="evenodd" d="M5.33922 4.80066H27.2386L26.2179 8.83661H4.31854L5.33922 4.80066Z" fill="#FEFEFE"/>
<path fill-rule="evenodd" clip-rule="evenodd" d="M3.9277 10.3758H25.8303L24.3478 16.2386H2.44513L3.9277 10.3758Z" fill="#FEFEFE"/>
<path fill-rule="evenodd" clip-rule="evenodd" d="M2.29328 16.8399H24.1959L22.3871 24.0229H0.594299L2.29328 16.8399Z" fill="#FEFEFE"/>
<path fill-rule="evenodd" clip-rule="evenodd" d="M0.235775 24.9804H22.1352C20.9175 29.7909 15.294 33.7549 9.46711 34H8.34307C2.63889 33.7549 -0.981935 29.7909 0.235775 24.9804Z" fill="#FEFEFE"/>
<path d="M51.8156 24.0359H47.3809L53.3273 11.3268H59.7388L61.3668 24.0359H55.8144L55.0101 16.8137L51.8156 24.0359Z" fill="#FEFEFE"/>
<path d="M46.9416 24.9608L43.2852 32.7516H47.917L49.7646 28.5065H56.2085L56.6671 32.7516H62.507L61.5056 24.9608H46.9416Z" fill="#FEFEFE"/>
<path d="M69.642 24.0229H65.2621L67.3875 11.3301H72.5135L77.9205 22.2222L79.7648 11.3301H84.1867L82.0581 24.0229H71.8869L70.2137 20.6079L69.642 24.0229Z" fill="#FEFEFE"/>
<path d="M65.1006 24.9608L63.7957 32.7484H68.1885L69.487 24.9608H65.1006Z" fill="#FEFEFE"/>
<path d="M72.3488 24.9608H81.8999L80.5917 32.7484H76.1698L72.3488 24.9608Z" fill="#FEFEFE"/>
<path fill-rule="evenodd" clip-rule="evenodd" d="M130.996 24.0359H128.499L127.317 11.3464H129.823L130.996 24.0359Z" fill="#FEFEFE"/>
<path fill-rule="evenodd" clip-rule="evenodd" d="M128.583 24.9314H131.077L131.454 29.0359L133.05 24.9314H134.982L131.978 32.7484H129.326L128.583 24.9314Z" fill="#FEFEFE"/>
<path fill-rule="evenodd" clip-rule="evenodd" d="M135.34 24.0033H133.412L138.37 11.3431H140.289L141.797 24.0033H139.517L138.548 15.6732L135.34 24.0033Z" fill="#FEFEFE"/>
<path fill-rule="evenodd" clip-rule="evenodd" d="M139.588 24.9738L140.508 32.7484H143.047L146.044 24.9738H143.948L142.375 29.1013L141.878 24.9738H139.588Z" fill="#FEFEFE"/>
<path fill-rule="evenodd" clip-rule="evenodd" d="M146.413 24.0033L144.333 23.9935L149.226 11.3431H151.338L146.413 24.0033Z" fill="#FEFEFE"/>
<path d="M151.975 23.9935L154.006 11.3431H166.768L166.426 13.4739H156.167L154.833 21.8235H163.619L163.273 23.9935H151.975Z" fill="#FEFEFE"/>
<path d="M151.81 24.9445L150.589 32.7516H164.158L164.52 30.4739H153.457L154.346 24.9445H151.81Z" fill="#FEFEFE"/>
<path d="M323 11.0948H200.803V32.732H323V11.0948Z" fill="#FEFEFE"/>
<path d="M228.568 14.7516C228.396 15.5555 228.232 16.3464 228.07 17.1209C227.909 17.8987 227.725 18.7549 227.521 19.6961L226.636 23.9314C226.494 24.6046 226.284 25.1961 226.003 25.7026C225.725 26.2124 225.341 26.6046 224.847 26.8823C224.356 27.1601 223.723 27.3006 222.947 27.3006C222.172 27.3006 221.597 27.1274 221.181 26.7843C220.764 26.4412 220.502 25.9706 220.396 25.3725C220.289 24.7745 220.315 24.1013 220.473 23.3529L221.248 19.6765C221.452 18.7353 221.633 17.8823 221.794 17.1176C221.953 16.3529 222.117 15.5653 222.289 14.7516H219.436C219.265 15.5621 219.101 16.3497 218.939 17.1176C218.778 17.8823 218.593 18.7418 218.39 19.6895C218.296 20.1568 218.199 20.6176 218.099 21.0751C217.999 21.5327 217.912 21.9477 217.831 22.3268C217.75 22.7059 217.683 23.0229 217.628 23.2843C217.382 24.4575 217.392 25.5327 217.654 26.5033C217.915 27.4738 218.464 28.2516 219.298 28.8301C220.134 29.4118 221.284 29.6993 222.75 29.6993C224.217 29.6993 225.376 29.4706 226.274 29.0098C227.169 28.549 227.864 27.9183 228.358 27.1176C228.849 26.317 229.201 25.4085 229.411 24.3921C229.472 24.098 229.556 23.6961 229.659 23.1928C229.766 22.6895 229.882 22.1274 230.011 21.5131C230.141 20.8987 230.27 20.2876 230.399 19.683C230.596 18.7353 230.774 17.8758 230.935 17.1078C231.094 16.3399 231.258 15.5523 231.429 14.7484H228.577L228.568 14.7516Z" fill="#070707"/>
<path d="M243.694 17.1209C244.485 16.3431 245.296 15.5555 246.123 14.7516H242.641C241.914 15.4804 241.278 16.1209 240.725 16.6732C240.176 17.2255 239.63 17.7778 239.085 18.3268L236.711 20.6765H236.035L236.242 19.6863C236.439 18.7451 236.62 17.8889 236.782 17.1209C236.943 16.3529 237.111 15.5621 237.279 14.7516H234.427C234.256 15.5686 234.091 16.3627 233.93 17.1307C233.768 17.8987 233.587 18.7516 233.39 19.6863L232.35 24.6307C232.153 25.5588 231.979 26.3954 231.827 27.1405C231.675 27.8856 231.513 28.6536 231.342 29.4444H234.194C234.366 28.6536 234.524 27.8856 234.679 27.1405C234.831 26.3954 235.005 25.5555 235.202 24.6209L235.551 22.9608H236.262L237.941 25.8235C238.274 26.3921 238.613 26.9706 238.955 27.5555C239.298 28.1405 239.666 28.768 240.06 29.4412H243.348C243.09 29.0163 242.789 28.5163 242.441 27.9477C242.095 27.3791 241.736 26.7908 241.371 26.1863C241.006 25.5817 240.664 25.0196 240.354 24.4967L238.791 21.9052L241.31 19.4477C242.105 18.6699 242.896 17.8954 243.687 17.1209H243.694Z" fill="#070707"/>
<path d="M257.289 21.5849C257.718 20.9934 258.022 20.2647 258.2 19.4019C258.403 18.4117 258.361 17.5719 258.074 16.8823C257.786 16.1928 257.269 15.6634 256.527 15.3006C255.784 14.9379 254.831 14.7549 253.671 14.7549H248.477C248.306 15.5653 248.141 16.3497 247.983 17.1078C247.825 17.866 247.641 18.7287 247.437 19.6993L246.397 24.634C246.207 25.5621 246.035 26.3954 245.877 27.1372C245.722 27.8791 245.561 28.647 245.399 29.4444H248.19C248.351 28.647 248.513 27.8791 248.668 27.1372C248.823 26.3954 248.997 25.5588 249.188 24.6242L249.33 23.9542H251.575L252.579 26.1372C252.831 26.6732 253.08 27.2091 253.332 27.7483C253.584 28.2876 253.849 28.8529 254.127 29.4444H257.305C257.114 29.0653 256.895 28.6307 256.649 28.1405C256.401 27.6503 256.145 27.1503 255.887 26.6405C255.625 26.1307 255.386 25.647 255.17 25.1863L254.185 23.2647C254.666 23.1895 255.096 23.0784 255.47 22.9314C256.255 22.6209 256.862 22.1732 257.292 21.5817L257.289 21.5849ZM255.247 19.3987C255.112 20.0098 254.912 20.4836 254.653 20.8202C254.391 21.1568 254.046 21.3921 253.62 21.5196C253.193 21.6503 252.651 21.7157 252.001 21.7157H249.808L250.157 20.0784C250.354 19.1568 250.532 18.317 250.693 17.5588C250.729 17.3954 250.761 17.2255 250.797 17.0588H253.151C253.464 17.0588 253.762 17.0948 254.046 17.1666C254.33 17.2385 254.579 17.3595 254.795 17.5327C255.008 17.7059 255.163 17.9444 255.254 18.2483C255.344 18.5555 255.344 18.9379 255.247 19.3987Z" fill="#070707"/>
<path d="M271.113 24.4902L270.493 19.4117C270.383 18.5131 270.283 17.6993 270.186 16.9706C270.093 16.2418 269.999 15.5032 269.912 14.7549H266.204C265.797 15.5163 265.393 16.2647 264.992 17C264.592 17.7353 264.159 18.5359 263.687 19.4019L260.958 24.4281C260.532 25.2255 260.08 26.0588 259.608 26.9314C259.136 27.8039 258.684 28.6405 258.248 29.4444H261.294C261.707 28.634 262.127 27.8039 262.557 26.9575C262.693 26.6895 262.822 26.4314 262.954 26.1699H268.594C268.62 26.4346 268.649 26.6993 268.675 26.9738C268.762 27.8268 268.846 28.6503 268.92 29.4477H271.73C271.637 28.6699 271.533 27.8497 271.423 26.9836C271.314 26.1176 271.21 25.2876 271.107 24.4902H271.113ZM267.499 17.2353H267.722L268.381 23.9836H264.065L267.496 17.2353H267.499Z" fill="#070707"/>
<path d="M276.452 17.1209C276.294 17.8823 276.11 18.7418 275.907 19.6961L274.867 24.6209C274.669 25.5555 274.495 26.3921 274.343 27.134C274.191 27.8758 274.03 28.6438 273.859 29.4412H276.772C276.943 28.6438 277.105 27.8758 277.257 27.134C277.409 26.3921 277.583 25.5555 277.78 24.6209L278.82 19.6961C279.017 18.7483 279.198 17.8889 279.359 17.1209C279.521 16.3529 279.689 15.5621 279.857 14.7516H276.943C276.772 15.5686 276.608 16.3595 276.449 17.1209H276.452Z" fill="#070707"/>
<path d="M292.027 17.1209C291.866 17.8823 291.685 18.7385 291.488 19.6863L290.409 24.817H290.196L288.403 20.9019C287.961 19.9281 287.512 18.9314 287.05 17.915C286.588 16.8987 286.107 15.8431 285.603 14.7516H283.067C282.896 15.5621 282.732 16.3497 282.57 17.1176C282.409 17.8823 282.228 18.7418 282.031 19.6895L280.991 24.634C280.794 25.5555 280.619 26.3856 280.467 27.1307C280.315 27.8758 280.154 28.647 279.983 29.4444H282.66C282.832 28.6405 282.993 27.8725 283.145 27.1372C283.297 26.4019 283.471 25.5653 283.668 24.6242L284.77 19.3399H284.983L286.814 23.2876C287.363 24.4706 287.87 25.5588 288.332 26.5523C288.794 27.549 289.24 28.5131 289.666 29.4477H292.131C292.299 28.6503 292.46 27.8823 292.615 27.1405C292.767 26.3987 292.942 25.5621 293.139 24.6274L294.179 19.6928C294.376 18.7451 294.557 17.8889 294.718 17.1274C294.88 16.366 295.047 15.5751 295.215 14.7582H292.528C292.357 15.5751 292.192 16.366 292.031 17.1274L292.027 17.1209Z" fill="#070707"/>
<path d="M300.581 17.5555C300.61 17.4215 300.639 17.281 300.665 17.1438H307.28L307.8 14.7549H298.371C298.2 15.5784 298.035 16.3725 297.874 17.134C297.712 17.8954 297.531 18.7516 297.334 19.6993L296.294 24.634C296.104 25.5621 295.929 26.3987 295.771 27.1438C295.613 27.8889 295.455 28.6568 295.296 29.4477H304.796L305.316 27.0588H298.594C298.623 26.9281 298.652 26.7941 298.678 26.6666C298.833 25.9248 299.008 25.0948 299.198 24.1732L299.408 23.1634H305.694L306.172 20.8856H299.88L300.041 20.1013C300.245 19.1666 300.426 18.3202 300.581 17.5555Z" fill="#070707"/>
</g>
<defs>
<clipPath id="clip0_78_268">
<rect width="323" height="34" fill="white"/>
</clipPath>
</defs>
</svg>
