<svg width="323" height="34" viewBox="0 0 323 34" fill="none" xmlns="http://www.w3.org/2000/svg">
<path d="M27.2096 23.1804C27.2516 22.7234 27.3162 22.2034 27.4066 21.6424C27.6682 20.1485 28.1075 18.7334 28.7212 17.4097C29.3349 16.0829 30.1166 14.901 31.0791 13.8736C32.0352 12.843 33.156 12.0362 34.4254 11.4531C35.698 10.8763 37.1063 10.5864 38.6405 10.5864C40.0585 10.5864 41.3053 10.8763 42.3873 11.4531C43.4694 12.0362 44.2866 12.7957 44.8551 13.7349C45.4171 14.6741 45.6981 15.6606 45.6981 16.688C45.6981 16.8897 45.6722 17.1733 45.6206 17.5358C45.6109 17.602 45.5107 18.1062 45.4591 18.3647H40.1845C40.178 18.2134 40.2297 17.7848 40.2297 17.561C40.2297 15.6542 39.461 14.7056 37.9267 14.7056C36.751 14.7056 35.7884 15.2634 35.0359 16.3823C34.2897 17.498 33.7051 19.244 33.2949 21.6109C33.2012 22.1908 33.1366 22.7139 33.0946 23.1804M33.0623 24.0723C33.0623 25.2825 33.2852 26.2722 33.7471 26.8426C34.209 27.4036 34.9196 27.6872 35.8821 27.6872C36.7251 27.6872 37.4551 27.4855 38.0559 27.079C38.6599 26.6724 39.1057 26.2564 39.3931 25.8309C39.7678 25.2668 40.1037 24.6774 40.3912 24.066H44.7032C44.2414 25.2447 43.815 26.3194 43.0915 27.3784C42.7329 27.9016 42.3421 28.3869 41.919 28.8313C40.95 29.8461 39.8518 30.6214 38.6179 31.1604C37.3776 31.693 36.0727 31.9609 34.687 31.9609C33.5824 31.9609 32.4519 31.7214 31.2987 31.2486C30.1521 30.7696 29.1734 29.9533 28.3724 28.7872C27.5681 27.6274 27.1482 25.9822 27.1482 24.0786" fill="#A42B21"/>
<path d="M94.3194 24.0565L93.0726 31.5827H90.5693L91.8161 24.0565M91.9647 23.1678L93.9899 10.9394H99.6133C101.27 10.9394 102.566 11.0875 103.502 11.3838C104.436 11.6832 105.23 12.3324 105.892 13.3441C106.551 14.3526 106.878 15.4494 106.878 16.6376C106.878 18.2228 106.312 19.7199 105.162 21.1255C104.016 22.5343 101.823 23.2371 98.5733 23.2371H94.4518M94.8006 21.1759H97.6043C99.3452 21.1759 100.605 21.0877 101.38 20.908C102.162 20.7253 102.837 20.2494 103.412 19.4772C103.99 18.705 104.274 17.7816 104.274 16.7006C104.274 15.8654 104.1 15.1468 103.748 14.548C103.399 13.9429 102.95 13.53 102.398 13.3031C101.848 13.0825 100.902 12.969 99.552 12.969L96.1476 12.9943L94.7974 21.1759H94.8006ZM121.716 23.1142C122.078 21.4848 122.256 20.1012 122.256 18.9414C122.256 16.9559 121.768 15.4021 120.786 14.2801C119.807 13.1644 118.561 12.6035 117.039 12.6035C114.859 12.6035 113.176 13.7097 111.994 15.9064C110.812 18.1094 110.221 20.4101 110.221 23.1142H107.598C107.598 22.9787 107.595 22.8778 107.595 22.736C107.595 19.6127 108.464 16.792 110.205 14.2801C111.945 11.7714 114.252 10.5171 117.126 10.5171C119.41 10.5171 121.267 11.3144 122.705 12.906C124.148 14.4976 124.865 16.6848 124.865 19.4677C124.865 20.741 124.74 21.9575 124.484 23.1142M124.232 24.107C123.803 25.5693 123.16 26.934 122.304 28.2041C120.595 30.7254 118.276 31.9924 115.347 31.9924C112.998 31.9924 111.122 31.1446 109.707 29.4427C108.538 28.0308 107.853 26.2596 107.653 24.107H110.237C110.34 25.8687 110.818 27.1893 111.655 28.1978C112.617 29.345 113.845 29.9218 115.343 29.9218C116.842 29.9218 118.231 29.323 119.326 28.1316C120.308 27.0538 121.022 25.6923 121.471 24.107H124.232ZM177.175 23.1489H177.191L171.313 23.0827M180.063 24.0597L182.637 31.5827H179.979L177.476 24.0597M168.68 23.1489L170.702 10.9394H177.108C179.036 10.9394 180.473 11.1474 181.416 11.554C182.363 11.9605 183.115 12.5971 183.674 13.4639C185.793 16.7573 183.684 22.5091 179.772 23.1489M171.016 24.0597L169.785 31.5827H167.282L168.529 24.0597M171.497 21.1318H176.19C183.035 21.1318 183.813 12.9533 177.556 12.9533H172.879L171.497 21.1318Z" fill="#514A49"/>
<path fill-rule="evenodd" clip-rule="evenodd" d="M27.9138 2.05803H6.0144L6.55058 0H28.4532L27.9138 2.05803Z" fill="#A42B21"/>
<path fill-rule="evenodd" clip-rule="evenodd" d="M5.33928 4.62976H27.2387L26.218 8.52205H4.3186L5.33928 4.62976Z" fill="#A42B21"/>
<path fill-rule="evenodd" clip-rule="evenodd" d="M3.92788 10.0065H25.8305L24.3479 15.6606H2.44531L3.92788 10.0065Z" fill="#A42B21"/>
<path fill-rule="evenodd" clip-rule="evenodd" d="M2.29346 16.2404H24.1961L22.3873 23.1678H0.594482L2.29346 16.2404Z" fill="#A42B21"/>
<path fill-rule="evenodd" clip-rule="evenodd" d="M0.235897 24.0912H22.1353C20.9176 28.7304 15.2942 32.5534 9.46724 32.7898H8.3432C2.63902 32.5534 -0.981813 28.7304 0.235897 24.0912Z" fill="#A42B21"/>
<path d="M51.8156 23.1804H47.3809L53.3273 10.9236H59.7388L61.3668 23.1804H55.8144L55.0101 16.2152L51.8156 23.1804Z" fill="#A42B21"/>
<path d="M46.9418 24.0723L43.2854 31.5858H47.9172L49.7648 27.4918H56.2086L56.6673 31.5858H62.5071L61.5058 24.0723H46.9418Z" fill="#A42B21"/>
<path d="M69.6421 23.1678H65.2622L67.3875 10.9268H72.5136L77.9206 21.4312L79.7649 10.9268H84.1868L82.0582 23.1678H71.8869L70.2138 19.8743L69.6421 23.1678Z" fill="#A42B21"/>
<path d="M65.1008 24.0723L63.7959 31.5827H68.1887L69.4872 24.0723H65.1008Z" fill="#A42B21"/>
<path d="M72.3489 24.0723H81.9L80.5918 31.5827H76.17L72.3489 24.0723Z" fill="#A42B21"/>
<path fill-rule="evenodd" clip-rule="evenodd" d="M130.996 23.1804H128.499L127.317 10.9425H129.823L130.996 23.1804Z" fill="#514A49"/>
<path fill-rule="evenodd" clip-rule="evenodd" d="M128.583 24.0439H131.077L131.454 28.0024L133.05 24.0439H134.982L131.978 31.5827H129.326L128.583 24.0439Z" fill="#514A49"/>
<path fill-rule="evenodd" clip-rule="evenodd" d="M135.34 23.1489H133.412L138.37 10.9394H140.289L141.797 23.1489H139.517L138.548 15.1153L135.34 23.1489Z" fill="#514A49"/>
<path fill-rule="evenodd" clip-rule="evenodd" d="M139.588 24.0849L140.508 31.5827H143.047L146.045 24.0849H143.948L142.375 28.0654L141.878 24.0849H139.588Z" fill="#514A49"/>
<path fill-rule="evenodd" clip-rule="evenodd" d="M146.413 23.1489L144.333 23.1394L149.226 10.9394H151.338L146.413 23.1489Z" fill="#514A49"/>
<path d="M151.975 23.1394L154.006 10.9394H166.768L166.426 12.9943H156.167L154.833 21.0467H163.619L163.273 23.1394H151.975Z" fill="#514A49"/>
<path d="M151.81 24.0565L150.589 31.5858H164.159L164.52 29.3891H153.458L154.346 24.0565H151.81Z" fill="#514A49"/>
<path d="M323 10.6999H200.803V31.5669H323V10.6999Z" fill="#A42B21"/>
<path d="M222.744 28.6454C221.278 28.6454 220.128 28.3649 219.291 27.8071C218.458 27.2461 217.909 26.4992 217.647 25.5631C217.386 24.6271 217.376 23.5902 217.621 22.4588C217.676 22.2066 217.744 21.8978 217.825 21.5353C217.906 21.1697 217.996 20.7695 218.093 20.3282C218.19 19.887 218.287 19.4426 218.384 18.9919C218.587 18.078 218.771 17.2522 218.933 16.5116C219.094 15.7741 219.262 15.0146 219.43 14.2298H222.282C222.111 15.0114 221.946 15.771 221.788 16.5116C221.63 17.2491 221.446 18.0748 221.242 18.9793L220.467 22.5249C220.312 23.2467 220.286 23.8959 220.389 24.4727C220.496 25.0494 220.754 25.5032 221.174 25.8342C221.594 26.1651 222.182 26.3321 222.941 26.3321C223.7 26.3321 224.349 26.1966 224.84 25.9287C225.331 25.6608 225.719 25.2826 225.997 24.791C226.274 24.3025 226.484 23.732 226.63 23.0828L227.515 18.9982C227.718 18.0906 227.902 17.2617 228.064 16.5147C228.225 15.7647 228.393 15.0051 228.561 14.2298H231.413C231.242 15.0051 231.078 15.7646 230.919 16.5053C230.761 17.2459 230.58 18.0748 230.383 18.9888C230.254 19.5718 230.125 20.158 229.995 20.7537C229.866 21.3494 229.75 21.8852 229.643 22.3737C229.537 22.859 229.456 23.2467 229.395 23.5303C229.185 24.5105 228.833 25.3866 228.342 26.1588C227.851 26.9309 227.156 27.5392 226.258 27.9836C225.364 28.428 224.188 28.6486 222.734 28.6486L222.744 28.6454Z" fill="white"/>
<path d="M231.349 28.3964C231.52 27.6337 231.678 26.893 231.833 26.1745C231.985 25.4559 232.159 24.6491 232.356 23.754L233.396 18.9856C233.593 18.0842 233.774 17.2648 233.936 16.521C234.097 15.7803 234.265 15.0145 234.433 14.2266H237.285C237.114 15.0082 236.949 15.7709 236.788 16.5115C236.626 17.2521 236.446 18.0779 236.249 18.9856L235.208 23.7445C235.011 24.6459 234.837 25.4559 234.685 26.1745C234.533 26.893 234.372 27.6337 234.201 28.3964H231.349ZM240.063 28.3964C239.669 27.7471 239.301 27.142 238.959 26.5779C238.616 26.0137 238.277 25.459 237.944 24.9075L236.265 22.1467H235.309L235.777 19.9405H236.714L239.088 17.6745C239.63 17.145 240.176 16.6124 240.729 16.0797C241.278 15.5471 241.917 14.9294 242.644 14.2266H246.126C245.299 15.0019 244.488 15.7646 243.697 16.5115C242.906 17.2616 242.114 18.0085 241.32 18.7555L238.296 21.5983L238.306 20.3376L240.364 23.6279C240.677 24.1322 241.016 24.6743 241.381 25.2573C241.746 25.8404 242.105 26.4077 242.45 26.9561C242.796 27.5076 243.099 27.9867 243.358 28.3964H240.07H240.063Z" fill="white"/>
<path d="M245.399 28.3964C245.561 27.6274 245.722 26.8867 245.877 26.1713C246.032 25.4559 246.207 24.6522 246.397 23.7571L247.437 18.9982C247.641 18.0653 247.822 17.2301 247.983 16.4989C248.141 15.7677 248.306 15.0113 248.477 14.2297H253.671C254.831 14.2297 255.784 14.4062 256.527 14.756C257.269 15.1059 257.786 15.6164 258.074 16.2814C258.361 16.9464 258.403 17.7564 258.2 18.7114C258.022 19.5465 257.718 20.2494 257.289 20.8167C256.859 21.3871 256.249 21.8189 255.467 22.1183C254.685 22.4177 253.674 22.5627 252.437 22.5564L253.658 21.4627L255.167 24.2961C255.383 24.7405 255.622 25.2069 255.884 25.6986C256.145 26.1902 256.401 26.6693 256.646 27.1452C256.895 27.6179 257.111 28.0371 257.302 28.4027H254.123C253.846 27.8322 253.581 27.287 253.329 26.767C253.077 26.2469 252.825 25.7301 252.576 25.2132L250.877 21.6455L252.302 23.1048H248.82L249.278 20.949H251.998C252.651 20.949 253.19 20.886 253.616 20.7599C254.043 20.6339 254.388 20.4101 254.65 20.0855C254.912 19.7609 255.109 19.3039 255.244 18.7145C255.338 18.2701 255.341 17.9014 255.251 17.6051C255.16 17.312 255.005 17.0788 254.792 16.9149C254.579 16.751 254.33 16.6313 254.043 16.5619C253.755 16.4926 253.458 16.4579 253.148 16.4579H248.81L251.171 14.6583C251.01 15.4462 250.848 16.2058 250.687 16.9401C250.528 17.6713 250.348 18.4813 250.151 19.37L249.185 23.7508C248.994 24.6522 248.823 25.459 248.665 26.1745C248.51 26.8899 248.348 27.6305 248.187 28.3995H245.396L245.399 28.3964Z" fill="white"/>
<path d="M258.251 28.3964C258.684 27.6211 259.14 26.8142 259.611 25.9728C260.083 25.1313 260.532 24.3276 260.961 23.5586L263.691 18.7114C264.159 17.8762 264.592 17.104 264.996 16.3949C265.399 15.6858 265.8 14.964 266.207 14.2297H269.915C270.002 14.9514 270.096 15.6637 270.19 16.3665C270.283 17.0693 270.387 17.8541 270.496 18.7208L271.117 23.6185C271.217 24.3875 271.323 25.188 271.433 26.0232C271.543 26.8584 271.643 27.6494 271.74 28.3995H268.93C268.856 27.6305 268.775 26.8363 268.684 26.0137C268.597 25.1911 268.513 24.4032 268.439 23.65L267.725 16.625H267.502L263.817 23.6185C263.41 24.3875 262.993 25.1817 262.564 25.998C262.134 26.8142 261.714 27.6148 261.301 28.3964H258.255H258.251ZM262.173 25.2353L262.896 23.13H269.679L269.476 25.2353H262.176H262.173Z" fill="white"/>
<path d="M273.862 28.3964C274.033 27.6274 274.192 26.8867 274.347 26.1713C274.499 25.4559 274.673 24.6491 274.87 23.7477L275.91 18.9982C276.114 18.0779 276.295 17.249 276.456 16.5147C276.614 15.7803 276.779 15.0176 276.95 14.2297H279.864C279.692 15.0113 279.528 15.774 279.366 16.5147C279.205 17.2553 279.024 18.0842 278.827 18.9982L277.787 23.7477C277.59 24.6491 277.415 25.4559 277.264 26.1713C277.112 26.8867 276.95 27.6274 276.779 28.3964H273.866H273.862Z" fill="white"/>
<path d="M279.983 28.3964C280.154 27.6274 280.312 26.8836 280.467 26.165C280.619 25.4464 280.793 24.6428 280.99 23.7572L282.031 18.9887C282.228 18.0747 282.408 17.249 282.57 16.5084C282.731 15.7709 282.899 15.0113 283.067 14.2266H285.603C286.107 15.2792 286.588 16.2972 287.05 17.2774C287.512 18.2575 287.964 19.2188 288.403 20.158L290.196 23.9336H290.409L291.488 18.9856C291.685 18.0716 291.866 17.2458 292.027 16.5115C292.189 15.7772 292.357 15.0145 292.525 14.2266H295.212C295.041 15.0145 294.876 15.7772 294.715 16.5115C294.553 17.2458 294.372 18.0716 294.175 18.9856L293.135 23.7445C292.938 24.6459 292.764 25.4527 292.612 26.1682C292.46 26.8836 292.299 27.6242 292.128 28.3932H289.663C289.237 27.4919 288.791 26.5621 288.329 25.6009C287.867 24.6396 287.36 23.5901 286.811 22.4524L284.98 18.6452H284.766L283.665 23.7414C283.468 24.6491 283.293 25.4559 283.142 26.165C282.99 26.8741 282.828 27.6148 282.657 28.3901H279.979L279.983 28.3964Z" fill="white"/>
<path d="M295.296 28.3964C295.451 27.6337 295.61 26.893 295.771 26.1745C295.933 25.4559 296.107 24.6491 296.294 23.754L297.335 18.995C297.532 18.081 297.712 17.2553 297.874 16.521C298.035 15.7866 298.203 15.0208 298.371 14.2266H307.8L307.28 16.5304H299.143L301.068 14.6331C300.897 15.4273 300.736 16.1932 300.581 16.9275C300.426 17.6619 300.245 18.4813 300.041 19.3827L299.195 23.3065C299.004 24.1952 298.833 24.9958 298.675 25.7112C298.52 26.4266 298.352 27.1672 298.178 27.9362L297.26 26.0894H305.316L304.796 28.3932H295.296V28.3964ZM298.749 22.3358L299.227 20.1391H306.172L305.694 22.3358H298.749Z" fill="white"/>
</svg>
